<?xml version="1.0" encoding="UTF-8"?> <svg xmlns="http://www.w3.org/2000/svg" width="1000" height="365" viewBox="0 0 1000 365" fill="none"><g clip-path="url(#clip0)"><path d="M185.125 70.2065V98.7689H229.34V114.637H185.125V159.464H165.703V53.1484H236.778V69.8098H185.125V70.2065Z" fill="white"></path><path d="M334.709 136.854H302.065L295.453 159.862H275.205L308.263 53.5469H328.511L361.156 159.862H340.908L334.709 136.854ZM318.18 78.5389C316.941 84.4894 314.875 91.2333 312.808 99.1673C308.676 113.845 307.436 117.415 306.61 121.382H330.577C329.337 116.622 327.684 112.258 325.205 102.341C322.726 93.6135 320.66 85.6795 319.007 78.5389H318.18Z" fill="white"></path><path d="M450.827 69.8098V159.861H431.405V69.8098H402.066V53.1484H480.166V69.8098H450.827Z" fill="white"></path><path d="M538.016 53.1484H597.107V69.8098H576.445V142.803H597.107V159.464H538.016V142.803H557.437V69.8098H538.016V53.1484Z" fill="white"></path><path d="M740.494 77.3564L722.725 84.497C719.832 76.563 712.394 70.2158 702.477 70.2158C686.775 70.2158 681.816 81.3234 681.816 92.431V120.993C681.816 132.498 687.188 143.605 702.477 143.605C716.113 143.605 723.551 134.878 723.551 122.183V117.82H704.13V101.952H742.56V122.183C742.56 145.192 727.27 161.06 702.064 161.06C674.378 161.06 662.395 143.209 662.395 120.993V92.431C662.395 71.8026 674.791 52.7611 702.064 52.7611C721.899 52.3644 734.708 62.6785 740.494 77.3564Z" fill="white"></path><path d="M873.141 53.1484V122.174C873.141 144.786 860.331 160.257 834.711 160.257C807.852 160.257 796.281 143.993 796.281 121.381V53.1484H815.29V113.843C815.29 129.315 817.769 143.199 834.711 143.199C851.24 143.199 854.133 130.108 854.133 113.843V53.1484H873.141Z" fill="white"></path><path d="M926.031 159.861V53.1484H995.866V69.8098H945.039V95.992H990.081V111.86H945.039V142.406H998.758V159.067H926.031V159.861Z" fill="white"></path><path d="M199.173 320.527C185.537 320.527 169.834 316.957 157.438 305.849C161.157 301.089 164.462 296.329 168.181 291.965C177.272 300.296 188.016 303.866 199.586 303.866C209.917 303.866 219.834 299.899 219.834 289.188C219.834 277.287 208.677 274.907 195.867 272.13C180.578 268.956 163.223 264.989 163.223 242.774C163.223 222.146 181.404 212.625 199.173 212.625C212.396 212.625 224.793 215.402 234.71 222.542L226.033 237.22C217.355 231.27 208.264 229.286 200.413 229.286C188.016 229.286 181.818 234.443 181.818 241.187C181.818 249.915 187.603 253.485 206.611 257.055C221.9 260.229 238.842 266.179 238.842 287.998C239.256 309.023 221.487 320.527 199.173 320.527Z" fill="white"></path><path d="M359.504 295.93C354.132 311.401 340.495 320.526 321.074 320.526C292.148 320.526 280.578 302.674 280.578 280.062V252.69C280.578 231.268 292.148 212.227 320.248 212.227C339.256 212.227 352.066 222.144 357.438 236.822L339.669 243.566C336.776 235.235 330.578 229.285 320.248 229.285C305.785 229.285 299.586 240.392 299.586 251.5V279.665C299.586 291.17 305.785 302.277 320.661 302.277C331.405 302.277 338.016 296.327 340.909 287.599L359.504 295.93Z" fill="white"></path><path d="M411.982 213.422H471.073V230.083H450.412V303.076H471.073V319.737H411.982V303.076H431.404V230.083H411.982V213.422Z" fill="white"></path><path d="M532.645 319.737V213.422H602.479V230.083H551.653V256.265H596.694V272.133H551.653V302.679H605.372V319.341H532.645V319.737Z" fill="white"></path><path d="M719.835 319.737L686.364 253.092H685.951V319.737H666.529V213.422H685.538L719.009 280.067H719.422V213.422H738.43V319.737H719.835Z" fill="white"></path><path d="M876.033 295.93C870.661 311.401 857.025 320.526 837.603 320.526C808.678 320.526 797.107 302.674 797.107 280.062V252.69C797.107 231.268 808.678 212.227 836.777 212.227C855.785 212.227 868.595 222.144 873.967 236.822L856.198 243.566C853.306 235.235 847.107 229.285 836.777 229.285C822.314 229.285 816.116 240.392 816.116 251.5V279.665C816.116 291.17 822.314 302.277 837.19 302.277C847.934 302.277 854.545 296.327 857.438 287.599L876.033 295.93Z" fill="white"></path><path d="M926.031 319.737V213.422H995.866V230.083H945.039V256.265H990.081V272.133H945.039V302.679H998.758V319.341H926.031V319.737Z" fill="white"></path><path d="M22.3141 364.964H0L88.843 0H110.744L22.3141 364.964Z" fill="#FFA600"></path></g><defs><clipPath id="clip0"><rect width="1000" height="364.964" fill="white"></rect></clipPath></defs></svg> 