<svg version="1.1" id="Layer_1" xmlns="http://www.w3.org/2000/svg" xmlns:xlink="http://www.w3.org/1999/xlink" x="0px" y="0px"
	 height="100%" viewBox="0 0 1080 1080" xml:space="preserve">
	<defs>
		<linearGradient id="mountain">
		<stop offset="0%" stop-color="#fcf4d9" />
		<stop offset="100%" stop-color="#d55b3e" />
		</linearGradient>
	</defs>
<path fill="#d55b3e" opacity="0.4" stroke="url(#mountain)" stroke-width="20"
	d="M38.468658,1081.000000 
	C38.507664,1079.352905 38.730339,1077.543213 39.564030,1076.082153 
	C72.211708,1018.866028 104.915627,961.682068 137.610992,904.493225 
	C156.116974,872.123535 174.617371,839.750732 193.127487,807.383484 
	C203.601181,789.068848 214.159958,770.802490 224.552567,752.442017 
	C236.167511,731.922180 247.487747,711.234619 259.203705,690.773132 
	C280.037170,654.388367 301.070831,618.118103 322.032166,581.806519 
	C322.428741,581.119568 322.966125,580.513855 323.939972,579.184998 
	C348.612610,622.307495 373.015656,664.958740 397.857849,708.377563 
	C445.602386,624.822632 493.017303,541.844482 540.973755,457.918732 
	C607.406677,574.168640 673.289978,689.456665 739.536194,805.379761 
	C770.275757,751.629822 800.696777,698.436768 831.503784,644.568848 
	C835.768677,651.936218 839.695496,658.646729 843.552856,665.397034 
	C854.849548,685.165771 866.162720,704.925354 877.386536,724.735474 
	C889.422913,745.979797 901.238159,767.350159 913.375732,788.536133 
	C935.939026,827.920166 958.718750,867.180115 981.310181,906.548035 
	C1002.663757,943.758728 1023.886353,981.044434 1045.176147,1018.291626 
	C1056.891602,1038.788330 1068.626953,1059.273560 1080.676636,1079.882080 
	C1080.833496,1080.333374 1080.684448,1080.943848 1080.497803,1080.955688 
	C1079.170288,1081.038940 1077.835083,1081.000000 1076.502319,1081.000000 
	C730.647339,1081.000000 384.792328,1081.000000 38.468658,1081.000000 
z"/>
</svg>